<?xml version="1.0" encoding="UTF-8" standalone="no"?>
<!DOCTYPE svg PUBLIC "-//W3C//DTD SVG 1.1//EN" "http://www.w3.org/Graphics/SVG/1.1/DTD/svg11.dtd">
<svg xmlns="http://www.w3.org/2000/svg" version="1.1" viewBox="0.00 0.00 213.00 213.00">
<g stroke-width="2.00" fill="none" stroke-linecap="butt">
<path stroke="#f1b093" vector-effect="non-scaling-stroke" d="
  M 213.00 70.90
  L 123.35 70.76"
/>
<path stroke="#a19b8e" vector-effect="non-scaling-stroke" d="
  M 123.35 70.76
  L 123.28 53.30
  A 1.67 1.65 -82.0 0 0 122.10 51.72
  C 114.54 49.49 106.60 48.52 98.92 49.44
  Q 75.48 52.23 60.30 70.90"
/>
<path stroke="#f1b093" vector-effect="non-scaling-stroke" d="
  M 60.30 70.90
  L 0.00 70.89"
/>
<path stroke="#aa6f5f" vector-effect="non-scaling-stroke" d="
  M 123.35 70.76
  L 123.35 76.69
  A 0.52 0.51 -77.6 0 1 122.62 77.16
  Q 106.86 69.73 90.23 75.73
  Q 83.06 78.32 77.70 84.78"
/>
<path stroke="#ab8760" vector-effect="non-scaling-stroke" d="
  M 77.70 84.78
  Q 73.07 90.29 71.43 99.01"
/>
<path stroke="#ac9c60" vector-effect="non-scaling-stroke" d="
  M 71.43 99.01
  Q 70.27 106.00 71.48 112.92"
/>
<path stroke="#72816c" vector-effect="non-scaling-stroke" d="
  M 71.48 112.92
  Q 72.77 121.06 77.10 126.94"
/>
<path stroke="#516a72" vector-effect="non-scaling-stroke" d="
  M 77.10 126.94
  Q 82.18 134.21 90.03 137.39
  Q 104.43 143.23 118.47 138.03
  C 119.86 137.51 121.09 136.75 122.56 136.54
  Q 123.17 136.46 123.20 137.08
  L 123.38 141.15"
/>
<path stroke="#a19b8e" vector-effect="non-scaling-stroke" d="
  M 123.38 141.15
  L 123.33 159.04
  A 1.19 1.19 0.0 0 1 122.49 160.18
  Q 95.82 168.21 72.72 152.81
  Q 68.00 149.66 59.60 141.05"
/>
<path stroke="#516a72" vector-effect="non-scaling-stroke" d="
  M 59.60 141.05
  Q 59.29 140.71 59.33 140.18
  Q 59.37 139.70 59.07 139.32
  Q 54.60 133.58 52.18 126.75"
/>
<path stroke="#72816c" vector-effect="non-scaling-stroke" d="
  M 52.18 126.75
  Q 49.49 120.14 48.63 112.83"
/>
<path stroke="#ac9c60" vector-effect="non-scaling-stroke" d="
  M 48.63 112.83
  Q 47.92 106.21 48.67 99.13"
/>
<path stroke="#ab8760" vector-effect="non-scaling-stroke" d="
  M 48.67 99.13
  Q 49.45 92.41 52.16 85.24"
/>
<path stroke="#aa6f5f" vector-effect="non-scaling-stroke" d="
  M 52.16 85.24
  Q 55.04 77.92 60.30 70.90"
/>
<path stroke="#fb9c65" vector-effect="non-scaling-stroke" d="
  M 213.00 84.98
  L 164.23 85.06"
/>
<path stroke="#aa6f5f" vector-effect="non-scaling-stroke" d="
  M 164.23 85.06
  L 165.37 81.90
  Q 165.55 81.39 165.01 81.39
  L 123.74 81.35
  A 0.48 0.47 0.6 0 0 123.26 81.81
  L 123.18 85.54"
/>
<path stroke="#fb9c65" vector-effect="non-scaling-stroke" d="
  M 123.18 85.54
  Q 119.58 84.52 117.50 84.64
  Q 108.26 85.18 99.00 85.07
  Q 88.57 84.95 77.70 84.78"
/>
<path stroke="#fb9c65" vector-effect="non-scaling-stroke" d="
  M 52.16 85.24
  L 0.00 85.00"
/>
<path stroke="#ab8760" vector-effect="non-scaling-stroke" d="
  M 164.23 85.06
  L 158.41 99.10"
/>
<path stroke="#ac9c60" vector-effect="non-scaling-stroke" d="
  M 158.41 99.10
  L 156.77 102.64
  Q 156.54 103.13 156.01 103.13
  L 124.36 103.11
  A 0.94 0.93 -2.0 0 1 123.42 102.24
  L 123.18 98.94"
/>
<path stroke="#ab8760" vector-effect="non-scaling-stroke" d="
  M 123.18 98.94
  L 123.18 85.54"
/>
<path stroke="#fdc966" vector-effect="non-scaling-stroke" d="
  M 123.18 98.94
  L 71.43 99.01"
/>
<path stroke="#fdc966" vector-effect="non-scaling-stroke" d="
  M 213.00 98.97
  L 166.28 99.14"
/>
<path stroke="#fdc966" vector-effect="non-scaling-stroke" d="
  M 166.28 99.14
  L 158.41 99.10"
/>
<path stroke="#fdc966" vector-effect="non-scaling-stroke" d="
  M 48.67 99.13
  L 0.00 98.96"
/>
<path stroke="#fede66" vector-effect="non-scaling-stroke" d="
  M 166.28 99.14
  L 166.39 112.87"
/>
<path stroke="#c4c372" vector-effect="non-scaling-stroke" d="
  M 166.39 112.87
  L 158.53 112.95"
/>
<path stroke="#fcb165" vector-effect="non-scaling-stroke" d="
  M 158.53 112.95
  L 156.80 109.16
  Q 156.59 108.70 156.08 108.69
  L 143.54 108.48
  Q 143.38 108.48 143.25 108.56
  Q 143.13 108.63 142.99 108.63
  Q 134.12 108.60 124.95 108.67
  A 2.00 1.98 10.0 0 0 123.10 109.95
  L 122.27 112.15"
/>
<path stroke="#c4c372" vector-effect="non-scaling-stroke" d="
  M 122.27 112.15
  Q 121.75 112.40 121.11 112.45
  Q 113.95 113.02 106.75 112.95
  Q 89.29 112.78 71.48 112.92"
/>
<path stroke="#c4c372" vector-effect="non-scaling-stroke" d="
  M 48.63 112.83
  L 0.00 112.91"
/>
<path stroke="#c4c372" vector-effect="non-scaling-stroke" d="
  M 213.00 112.95
  L 166.39 112.87"
/>
<path stroke="#c29671" vector-effect="non-scaling-stroke" d="
  M 158.53 112.95
  L 164.28 126.97"
/>
<path stroke="#a17f77" vector-effect="non-scaling-stroke" d="
  M 164.28 126.97
  Q 165.01 128.39 165.12 129.74
  Q 165.16 130.19 164.71 130.19
  L 124.54 130.23
  Q 124.06 130.23 123.77 129.84
  Q 122.86 128.59 123.24 127.12"
/>
<path stroke="#c29671" vector-effect="non-scaling-stroke" d="
  M 123.24 127.12
  Q 123.39 119.62 123.37 112.87
  Q 123.37 112.35 123.14 112.20
  Q 122.85 112.03 122.27 112.15"
/>
<path stroke="#699184" vector-effect="non-scaling-stroke" d="
  M 123.24 127.12
  L 77.10 126.94"
/>
<path stroke="#699184" vector-effect="non-scaling-stroke" d="
  M 52.18 126.75
  L 0.00 126.83"
/>
<path stroke="#699184" vector-effect="non-scaling-stroke" d="
  M 213.00 126.98
  L 164.28 126.97"
/>
<path stroke="#98aba5" vector-effect="non-scaling-stroke" d="
  M 59.60 141.05
  L 0.00 141.02"
/>
<path stroke="#98aba5" vector-effect="non-scaling-stroke" d="
  M 213.00 141.02
  L 123.38 141.15"
/>
</g>
<path fill="#e8dbc1" d="
  M 0.00 0.00
  L 213.00 0.00
  L 213.00 70.90
  L 123.35 70.76
  L 123.28 53.30
  A 1.67 1.65 -82.0 0 0 122.10 51.72
  C 114.54 49.49 106.60 48.52 98.92 49.44
  Q 75.48 52.23 60.30 70.90
  L 0.00 70.89
  L 0.00 0.00
  Z"
/>
<path fill="#5a5a5a" d="
  M 123.35 70.76
  L 123.35 76.69
  A 0.52 0.51 -77.6 0 1 122.62 77.16
  Q 106.86 69.73 90.23 75.73
  Q 83.06 78.32 77.70 84.78
  Q 73.07 90.29 71.43 99.01
  Q 70.27 106.00 71.48 112.92
  Q 72.77 121.06 77.10 126.94
  Q 82.18 134.21 90.03 137.39
  Q 104.43 143.23 118.47 138.03
  C 119.86 137.51 121.09 136.75 122.56 136.54
  Q 123.17 136.46 123.20 137.08
  L 123.38 141.15
  L 123.33 159.04
  A 1.19 1.19 0.0 0 1 122.49 160.18
  Q 95.82 168.21 72.72 152.81
  Q 68.00 149.66 59.60 141.05
  Q 59.29 140.71 59.33 140.18
  Q 59.37 139.70 59.07 139.32
  Q 54.60 133.58 52.18 126.75
  Q 49.49 120.14 48.63 112.83
  Q 47.92 106.21 48.67 99.13
  Q 49.45 92.41 52.16 85.24
  Q 55.04 77.92 60.30 70.90
  Q 75.48 52.23 98.92 49.44
  C 106.60 48.52 114.54 49.49 122.10 51.72
  A 1.67 1.65 -82.0 0 1 123.28 53.30
  L 123.35 70.76
  Z"
/>
<path fill="#fa8464" d="
  M 123.35 70.76
  L 213.00 70.90
  L 213.00 84.98
  L 164.23 85.06
  L 165.37 81.90
  Q 165.55 81.39 165.01 81.39
  L 123.74 81.35
  A 0.48 0.47 0.6 0 0 123.26 81.81
  L 123.18 85.54
  Q 119.58 84.52 117.50 84.64
  Q 108.26 85.18 99.00 85.07
  Q 88.57 84.95 77.70 84.78
  Q 83.06 78.32 90.23 75.73
  Q 106.86 69.73 122.62 77.16
  A 0.52 0.51 -77.6 0 0 123.35 76.69
  L 123.35 70.76
  Z"
/>
<path fill="#fa8464" d="
  M 60.30 70.90
  Q 55.04 77.92 52.16 85.24
  L 0.00 85.00
  L 0.00 70.89
  L 60.30 70.90
  Z"
/>
<path fill="#5a5a5a" d="
  M 164.23 85.06
  L 158.41 99.10
  L 156.77 102.64
  Q 156.54 103.13 156.01 103.13
  L 124.36 103.11
  A 0.94 0.93 -2.0 0 1 123.42 102.24
  L 123.18 98.94
  L 123.18 85.54
  L 123.26 81.81
  A 0.48 0.47 0.6 0 1 123.74 81.35
  L 165.01 81.39
  Q 165.55 81.39 165.37 81.90
  L 164.23 85.06
  Z"
/>
<path fill="#fcb465" d="
  M 77.70 84.78
  Q 88.57 84.95 99.00 85.07
  Q 108.26 85.18 117.50 84.64
  Q 119.58 84.52 123.18 85.54
  L 123.18 98.94
  L 71.43 99.01
  Q 73.07 90.29 77.70 84.78
  Z"
/>
<path fill="#fcb465" d="
  M 213.00 84.98
  L 213.00 98.97
  L 166.28 99.14
  L 158.41 99.10
  L 164.23 85.06
  L 213.00 84.98
  Z"
/>
<path fill="#fcb465" d="
  M 0.00 85.00
  L 52.16 85.24
  Q 49.45 92.41 48.67 99.13
  L 0.00 98.96
  L 0.00 85.00
  Z"
/>
<path fill="#fede66" d="
  M 123.18 98.94
  L 123.42 102.24
  A 0.94 0.93 -2.0 0 0 124.36 103.11
  L 156.01 103.13
  Q 156.54 103.13 156.77 102.64
  L 158.41 99.10
  L 166.28 99.14
  L 166.39 112.87
  L 158.53 112.95
  L 156.80 109.16
  Q 156.59 108.70 156.08 108.69
  L 143.54 108.48
  Q 143.38 108.48 143.25 108.56
  Q 143.13 108.63 142.99 108.63
  Q 134.12 108.60 124.95 108.67
  A 2.00 1.98 10.0 0 0 123.10 109.95
  L 122.27 112.15
  Q 121.75 112.40 121.11 112.45
  Q 113.95 113.02 106.75 112.95
  Q 89.29 112.78 71.48 112.92
  Q 70.27 106.00 71.43 99.01
  L 123.18 98.94
  Z"
/>
<path fill="#fede66" d="
  M 48.67 99.13
  Q 47.92 106.21 48.63 112.83
  L 0.00 112.91
  L 0.00 98.96
  L 48.67 99.13
  Z"
/>
<path fill="#fede66" d="
  M 213.00 98.97
  L 213.00 112.95
  L 166.39 112.87
  L 166.28 99.14
  L 213.00 98.97
  Z"
/>
<path fill="#fa8464" d="
  M 158.53 112.95
  L 164.28 126.97
  Q 165.01 128.39 165.12 129.74
  Q 165.16 130.19 164.71 130.19
  L 124.54 130.23
  Q 124.06 130.23 123.77 129.84
  Q 122.86 128.59 123.24 127.12
  Q 123.39 119.62 123.37 112.87
  Q 123.37 112.35 123.14 112.20
  Q 122.85 112.03 122.27 112.15
  L 123.10 109.95
  A 2.00 1.98 10.0 0 1 124.95 108.67
  Q 134.12 108.60 142.99 108.63
  Q 143.13 108.63 143.25 108.56
  Q 143.38 108.48 143.54 108.48
  L 156.08 108.69
  Q 156.59 108.70 156.80 109.16
  L 158.53 112.95
  Z"
/>
<path fill="#8aa77e" d="
  M 122.27 112.15
  Q 122.85 112.03 123.14 112.20
  Q 123.37 112.35 123.37 112.87
  Q 123.39 119.62 123.24 127.12
  L 77.10 126.94
  Q 72.77 121.06 71.48 112.92
  Q 89.29 112.78 106.75 112.95
  Q 113.95 113.02 121.11 112.45
  Q 121.75 112.40 122.27 112.15
  Z"
/>
<path fill="#8aa77e" d="
  M 48.63 112.83
  Q 49.49 120.14 52.18 126.75
  L 0.00 126.83
  L 0.00 112.91
  L 48.63 112.83
  Z"
/>
<path fill="#8aa77e" d="
  M 158.53 112.95
  L 166.39 112.87
  L 213.00 112.95
  L 213.00 126.98
  L 164.28 126.97
  L 158.53 112.95
  Z"
/>
<path fill="#477a89" d="
  M 0.00 126.83
  L 52.18 126.75
  Q 54.60 133.58 59.07 139.32
  Q 59.37 139.70 59.33 140.18
  Q 59.29 140.71 59.60 141.05
  L 0.00 141.02
  L 0.00 126.83
  Z"
/>
<path fill="#477a89" d="
  M 123.24 127.12
  Q 122.86 128.59 123.77 129.84
  Q 124.06 130.23 124.54 130.23
  L 164.71 130.19
  Q 165.16 130.19 165.12 129.74
  Q 165.01 128.39 164.28 126.97
  L 213.00 126.98
  L 213.00 141.02
  L 123.38 141.15
  L 123.20 137.08
  Q 123.17 136.46 122.56 136.54
  C 121.09 136.75 119.86 137.51 118.47 138.03
  Q 104.43 143.23 90.03 137.39
  Q 82.18 134.21 77.10 126.94
  L 123.24 127.12
  Z"
/>
<path fill="#e8dbc1" d="
  M 0.00 141.02
  L 59.60 141.05
  Q 68.00 149.66 72.72 152.81
  Q 95.82 168.21 122.49 160.18
  A 1.19 1.19 0.0 0 0 123.33 159.04
  L 123.38 141.15
  L 213.00 141.02
  L 213.00 213.00
  L 0.00 213.00
  L 0.00 141.02
  Z"
/>
</svg>
