<?xml version="1.0" encoding="utf-8"?>
<svg viewBox="200 114 908.3 801.1" xmlns="http://www.w3.org/2000/svg">
  <path d="M6720 8095 l0 -1005 910 0 910 0 0 -635 0 -635 733 1 732 0 535 628 c293 346 536 633 538 640 3 8 -314 11 -1267 11 l-1271 0 0 1000 0 1000 -910 0 -910 0 0 -1005z" style="fill: rgb(53, 56, 57);" transform="matrix(0.10000000149011612, 0, 0, -0.10000000149011612, 0, 1023.9999999999999)"/>
  <path d="M2000 8086 l0 -996 910 0 910 0 -6 28 c-154 691 -497 1380 -812 1631 -201 160 -554 282 -944 326 l-58 6 0 -995z" style="fill: rgb(53, 56, 57);" transform="matrix(0.10000000149011612, 0, 0, -0.10000000149011612, 0, 1023.9999999999999)"/>
  <path d="M2000 6730 l0 -180 910 0 910 0 0 180 0 180 -910 0 -910 0 0 -180z" style="fill: rgb(138, 65, 56);" transform="matrix(0.10000000149011612, 0, 0, -0.10000000149011612, 0, 1023.9999999999999)"/>
  <path d="M2000 6180 l0 -180 910 0 910 0 0 180 0 180 -910 0 -910 0 0 -180z" style="fill: rgb(146, 95, 38);" transform="matrix(0.10000000149011612, 0, 0, -0.10000000149011612, 0, 1023.9999999999999)"/>
  <path d="M2000 5640 l0 -180 910 0 910 0 0 180 0 180 -910 0 -910 0 0 -180z" style="fill: rgb(210, 219, 112);" transform="matrix(0.10000000149011612, 0, 0, -0.10000000149011612, 0, 1023.9999999999999)"/>
  <path d="M8540 4815 l0 -635 -905 0 -905 0 0 -725 0 -726 -832 4 c-807 3 -837 4 -948 25 -649 124 -927 371 -1069 947 -26 106 -49 257 -57 378 l-7 97 -908 0 -909 0 0 -312 c0 -255 4 -338 20 -448 88 -621 305 -1125 628 -1462 379 -394 1075 -676 1997 -807 403 -58 285 -55 2163 -58 l1732 -4 0 1546 0 1545 1271 2 1272 3 -541 633 -542 632 -730 0 -730 0 0 -635z" style="fill: rgb(53, 56, 57);" transform="matrix(0.10000000149011612, 0, 0, -0.10000000149011612, 0, 1023.9999999999999)"/>
  <path d="M2000 5090 l0 -180 910 0 910 0 0 180 0 180 -910 0 -910 0 0 -180z" style="fill: rgb(104, 169, 67);" transform="matrix(0.10000000149011612, 0, 0, -0.10000000149011612, 0, 1023.9999999999999)"/>
  <path d="M2000 4540 l0 -180 910 0 910 0 0 180 0 180 -910 0 -910 0 0 -180z" style="fill: rgb(124, 113, 218);" transform="matrix(0.10000000149011612, 0, 0, -0.10000000149011612, 0, 1023.9999999999999)"/>
</svg>